<mxfile host="app.diagrams.net" modified="2024-02-16T11:12:09.526Z" agent="Mozilla/5.0 (Windows NT 10.0; Win64; x64; rv:122.0) Gecko/20100101 Firefox/122.0" version="23.1.5" etag="LRb7qhzHtp7e9VLvENgz" type="github">
  <diagram name="Sida-1" id="xGaA6MLKLsfbEzsCWlhL">
    <mxGraphModel>
      <root>
        <mxCell id="0" />
        <mxCell id="1" parent="0" />
      </root>
    </mxGraphModel>
  </diagram>
</mxfile>
